<svg width="101" height="101" viewBox="0 0 101 101" fill="none" xmlns="http://www.w3.org/2000/svg">
<path d="M48.6655 0.197273C47.7778 0.43399 46.4759 1.06524 45.6474 1.69649C44.8978 2.28828 43.5564 2.76173 42.6884 2.76173C42.3333 2.76173 41.4456 2.62364 40.696 2.4461C38.7628 1.99239 37.1649 2.16993 35.3698 3.05762C33.9495 3.74805 33.1802 4.47794 31.7007 6.49004C30.9116 7.59473 29.6689 8.24571 27.8935 8.50215C24.4808 8.97559 21.7388 11.4414 21.0878 14.5977C20.6538 16.7281 19.7267 17.9314 17.7737 18.9178C16.5507 19.549 15.1698 21.0088 14.4794 22.3897C13.9271 23.5338 13.9073 23.6522 13.8876 26.6309C13.8876 30.0436 13.789 30.3789 12.6054 31.7992C10.1593 34.7188 9.86339 37.7172 11.6585 41.3469C12.6251 43.2998 12.7237 44.5031 12.053 46.4363C10.9286 49.632 11.9347 52.8869 14.8148 55.4119C16.314 56.7336 16.6691 57.5029 16.9452 60.0477C17.3398 63.8549 19.0954 66.0051 22.8632 67.2873C24.0468 67.7016 25.2501 68.5301 25.2501 68.9246C25.2501 69.0627 23.3761 73.6984 21.0878 79.2219C17.1622 88.6906 16.9255 89.3219 17.0044 90.2885C17.1228 91.5707 17.8724 92.6162 19.0954 93.1488C20.279 93.6814 20.6735 93.6025 26.1181 91.9258C29.511 90.8803 30.6946 90.5844 30.8919 90.7619C31.03 90.8803 32.1347 92.8529 33.3577 95.1412C34.561 97.4492 35.7841 99.5797 36.08 99.8953C37.4411 101.375 39.6899 101.355 41.0905 99.8756C41.4653 99.4613 43.004 95.9895 45.9433 88.8879C48.3302 83.1672 50.3226 78.4328 50.3817 78.3736C50.4409 78.2947 50.5593 78.2947 50.6185 78.3736C50.6776 78.4328 52.67 83.1672 55.0372 88.8879C57.9962 96.0092 59.5349 99.4613 59.9097 99.8756C61.3103 101.355 63.5591 101.375 64.9202 99.8953C65.2161 99.5797 66.4392 97.4492 67.6425 95.1412C68.8655 92.8529 69.9702 90.8803 70.128 90.7422C70.3253 90.5844 71.4497 90.8605 74.9019 91.9258C80.3464 93.6025 80.7212 93.6814 81.9048 93.1488C83.1278 92.6162 83.8775 91.5707 83.9958 90.2885C84.0747 89.3219 83.838 88.6906 79.9124 79.2219C77.6241 73.6984 75.7501 69.0627 75.7501 68.9246C75.7501 68.5301 76.9534 67.7016 78.137 67.2873C79.8532 66.6955 80.8593 66.1234 81.8456 65.1174C83.2265 63.7563 83.8183 62.3951 84.055 60.0477C84.3312 57.5029 84.6862 56.7336 86.1855 55.4119C89.105 52.8672 90.0124 49.849 88.9275 46.4363C88.2765 44.3453 88.3554 43.3195 89.3614 41.3272C91.1368 37.7172 90.8409 34.699 88.3948 31.7992C87.1718 30.3592 86.9745 29.5701 87.1126 26.7492C87.231 24.6385 87.1915 24.2242 86.8364 23.1984C86.3038 21.7189 85.1005 20.1408 83.9564 19.4109C83.4632 19.0953 82.6544 18.5824 82.1612 18.2865C81.0763 17.5961 80.3661 16.452 79.9124 14.6371C79.0839 11.2639 76.5392 8.97559 73.1068 8.50215C71.3511 8.24571 70.0886 7.59473 69.2995 6.49004C67.82 4.47794 67.0507 3.74805 65.6304 3.05762C63.8353 2.16993 62.2374 1.99239 60.3042 2.4461C59.5546 2.62364 58.6669 2.76173 58.3118 2.76173C57.4241 2.76173 56.1025 2.26856 55.2937 1.65704C54.0312 0.690437 52.5517 0.157822 50.9341 0.0789108C50.1056 0.0394592 49.0798 0.0986404 48.6655 0.197273ZM52.098 3.25489C52.5517 3.43243 53.2421 3.78751 53.5972 4.06367C55.5501 5.5629 57.7595 5.97716 60.5607 5.40508C62.0796 5.10918 62.4939 5.08946 63.2829 5.30645C64.6243 5.66153 65.5712 6.35196 66.4589 7.65392C67.82 9.68575 69.4573 10.7904 71.7062 11.2244C75.3753 11.9543 76.3616 12.7631 77.131 15.6826C77.8411 18.3654 79.1628 20.1211 81.2933 21.2061C82.4571 21.8176 83.404 22.7645 83.8577 23.7902C84.1734 24.4609 84.2128 25.0527 84.1734 27.4397C84.1339 30.083 84.1734 30.3592 84.6271 31.3652C84.8835 31.957 85.4753 32.9039 85.929 33.4563C87.2507 35.0738 87.4677 35.6262 87.4677 37.1846C87.4677 38.4076 87.3888 38.743 86.6392 40.1436C85.3767 42.6094 85.1991 44.6609 86.0868 47.1268C86.5208 48.2906 86.4814 50.0068 86.0276 51.0129C85.8107 51.4666 85.278 52.1768 84.8046 52.591C82.1612 54.9582 81.5892 56.0234 81.1946 59.1797C80.8001 62.2965 79.8927 63.6182 77.6241 64.3086C75.1583 65.0582 73.3829 66.5772 72.3374 68.8457C71.4892 70.6408 70.9763 71.2523 69.7927 71.9033C68.8853 72.3965 68.5696 72.4557 66.597 72.4951C63.5591 72.5543 62.4544 72.9883 60.2648 74.9609C59.5349 75.6316 58.6275 76.3023 58.2724 76.4602C57.148 76.9336 55.5698 76.8152 53.8931 76.1051C52.5517 75.5527 52.1571 75.4738 50.5001 75.4738C48.8431 75.4738 48.4485 75.5527 47.1071 76.1051C45.4304 76.8152 43.8523 76.9336 42.7278 76.4602C42.3728 76.3023 41.4653 75.6316 40.7355 74.9609C38.5458 72.9883 37.4411 72.5543 34.4032 72.4951C32.4306 72.4557 32.115 72.3965 31.2075 71.9033C30.0239 71.2523 29.511 70.6408 28.6628 68.8457C27.6173 66.5772 25.8419 65.0582 23.3761 64.3086C21.1075 63.6182 20.2001 62.3162 19.8253 59.1994C19.4308 56.0432 18.8587 54.9977 16.1956 52.5713C15.7222 52.1373 15.1698 51.4272 14.9726 50.9932C14.5189 50.0068 14.4991 48.2709 14.9134 47.1268C15.8011 44.6609 15.6235 42.6094 14.361 40.1436C13.6114 38.743 13.5325 38.4076 13.5325 37.1846C13.5325 35.6262 13.7495 35.0738 15.0712 33.4563C15.5249 32.9039 16.1167 31.957 16.3732 31.3652C16.8269 30.3592 16.8663 30.083 16.8269 27.4397C16.7874 25.0527 16.8269 24.4609 17.1425 23.7902C17.5962 22.7645 18.5431 21.8176 19.7069 21.2061C21.8177 20.1211 23.1591 18.3654 23.8692 15.7023C24.323 14.0256 24.6978 13.3549 25.6841 12.5264C26.4732 11.8557 26.9466 11.6781 28.8009 11.3625C31.3653 10.9088 33.1013 9.78438 34.5413 7.65392C35.429 6.35196 36.3759 5.66153 37.7173 5.30645C38.5064 5.08946 38.9206 5.10918 40.4396 5.40508C43.2407 5.97716 45.4501 5.5629 47.403 4.06367C48.7839 2.99844 50.5198 2.70255 52.098 3.25489ZM27.4792 72.6727C27.6765 73.1855 29.5702 74.527 30.7144 74.9609C31.6021 75.316 32.3319 75.4146 34.0284 75.4344C36.5929 75.4936 37.2241 75.7303 39.0982 77.4662C39.7491 78.058 40.7749 78.7879 41.4062 79.0838C42.3728 79.5375 42.7673 79.5967 44.5427 79.5967C46.2589 79.5967 46.5351 79.6361 46.4562 79.8926C45.7657 81.7469 39.1179 97.6268 38.9403 97.824C38.8023 97.9621 38.5655 98.041 38.4077 97.9818C38.2499 97.9227 37.1255 95.95 35.8827 93.5828C34.6399 91.2354 33.338 89.0063 33.0026 88.6512C32.2728 87.9213 31.03 87.4873 30.1028 87.6648C29.7478 87.724 27.4595 88.4145 24.9739 89.1838C22.4884 89.9334 20.3382 90.5252 20.1804 90.4463C19.9831 90.3871 19.9042 90.1701 19.9634 89.8939C20.1015 89.2232 27.1044 72.3965 27.2425 72.3965C27.3214 72.3965 27.42 72.5148 27.4792 72.6727ZM77.4269 80.9184C79.3601 85.6133 80.9974 89.6572 81.0368 89.8939C81.096 90.1701 81.0171 90.3871 80.8396 90.4463C80.662 90.5252 78.5316 89.9334 76.0657 89.1838C73.5999 88.4145 71.2919 87.7438 70.9368 87.6846C69.9702 87.4873 68.7275 87.9016 67.9976 88.6512C67.6622 89.0063 66.3405 91.2354 65.1175 93.6025C63.8747 95.95 62.7306 97.9424 62.5728 97.9818C62.4347 98.041 62.198 97.9621 62.0599 97.824C61.8823 97.6268 55.2345 81.7469 54.5441 79.8926C54.4651 79.6361 54.7413 79.5967 56.4575 79.5967C58.2526 79.5967 58.6275 79.5375 59.6532 79.0443C60.2845 78.7484 61.3497 77.9988 62.0401 77.3676C63.8155 75.7105 64.3679 75.4936 66.9718 75.4344C68.6683 75.4146 69.3982 75.316 70.2859 74.9609C71.43 74.527 73.3237 73.1855 73.521 72.6727C73.5802 72.5148 73.6788 72.3965 73.7577 72.3965C73.8366 72.3965 75.4739 76.2432 77.4269 80.9184Z" fill="#F8FF00"/>
<path d="M45.7658 10.7313C36.5929 12.3686 29.0574 17.7342 24.5203 25.8418C23.0013 28.5246 21.3443 33.7127 21.2457 36.0404C21.2062 36.9676 21.2654 37.1649 21.6797 37.5002C22.2715 37.9736 23.1789 37.9736 23.6326 37.5199C23.8693 37.2832 24.1258 36.4744 24.3427 35.2908C26.2957 24.5596 34.1468 16.4322 45.0754 13.8875C46.3379 13.5916 47.4228 13.5127 50.5988 13.5127C54.2285 13.5127 54.7019 13.5522 56.6746 14.0651C64.4666 16.018 70.7988 21.068 74.3496 28.1695C75.2373 29.9252 76.2631 33.1012 76.6576 35.2908C76.8746 36.4744 77.131 37.2832 77.3677 37.5199C77.8214 37.9736 78.7289 37.9736 79.3207 37.5002C79.8927 37.0465 79.8927 36.2574 79.3996 33.8705C77.0324 22.4488 68.0963 13.5324 56.4181 10.9483C54.406 10.4945 47.8174 10.3762 45.7658 10.7313Z" fill="#F8FF00"/>
<path d="M49.6123 18.7403C48.4287 19.0954 48.0539 19.7661 45.9629 25.546C44.8582 28.5838 43.8916 31.1483 43.8127 31.2272C43.7338 31.3061 41.1299 31.4639 38.0525 31.5823C34.9752 31.6809 32.1543 31.819 31.7992 31.8782C30.8918 32.0163 29.8463 33.0026 29.5701 33.9692C29.3926 34.6202 29.432 34.9358 29.6885 35.646C29.9844 36.4153 30.5367 36.9085 34.8371 40.262C37.4805 42.3333 39.6504 44.0889 39.6504 44.1481C39.6504 44.227 38.9402 46.7717 38.0723 49.8096C37.2043 52.8475 36.4941 55.6881 36.4941 56.1221C36.4941 57.9567 38.3287 59.2981 40.0252 58.726C40.4197 58.5879 42.9053 57.0295 45.5092 55.2739C48.1328 53.5182 50.3816 52.0782 50.5 52.0782C50.6184 52.0782 52.8672 53.5182 55.4908 55.2739C58.0947 57.0295 60.5803 58.5879 60.9748 58.726C62.6713 59.2981 64.5059 57.9567 64.5059 56.1221C64.5059 55.6881 63.7957 52.8475 62.9277 49.8096C62.0598 46.7717 61.3496 44.227 61.3496 44.1678C61.3496 44.0889 63.5195 42.3333 66.1432 40.2817C71.2523 36.2969 71.5285 36.001 71.4891 34.4624C71.4496 33.6338 71.0156 32.904 70.1477 32.2727C69.6545 31.8979 69.2008 31.8387 65.2357 31.7006C62.8291 31.6217 60.0082 31.4837 58.9824 31.4047L57.1281 31.2667L55.1357 25.8221C54.0311 22.8237 52.9856 20.1409 52.808 19.8647C52.1373 18.8389 50.8156 18.3852 49.6123 18.7403ZM52.5713 27.4397C53.6365 30.379 54.682 33.0026 54.899 33.259C55.6486 34.2256 56.0234 34.3046 62.1584 34.5215C65.3541 34.6399 68.0369 34.7583 68.1356 34.7977C68.2342 34.8174 66.2221 36.4745 63.6576 38.4669C61.1129 40.479 58.8641 42.353 58.7063 42.6489C58.5287 42.9251 58.3906 43.4971 58.3906 43.9311C58.3906 44.3454 59.0811 47.1268 59.949 50.1055C60.7973 53.0842 61.468 55.5501 61.4482 55.5895C61.4088 55.629 59.2389 54.2284 56.6152 52.4727C53.9719 50.6973 51.5258 49.1784 51.1707 49.06C50.717 48.9219 50.283 48.9219 49.849 49.06C49.494 49.1587 47.0479 50.6973 44.4045 52.453C41.7809 54.2087 39.5912 55.629 39.5518 55.5895C39.532 55.5501 40.2027 53.0842 41.051 50.1055C41.919 47.1268 42.6094 44.3256 42.6094 43.8917C42.6094 43.4577 42.4516 42.8659 42.2543 42.57C42.057 42.2741 39.8279 40.4198 37.3029 38.4274C34.7779 36.4547 32.7856 34.8174 32.8645 34.778C32.9631 34.7583 35.6459 34.6399 38.8416 34.5215C44.9766 34.3046 45.3514 34.2256 46.101 33.259C46.318 33.0026 47.3635 30.379 48.4287 27.4397C49.494 24.5004 50.4211 22.0938 50.5 22.0938C50.5789 22.0938 51.5061 24.5004 52.5713 27.4397Z" fill="#F8FF00"/>
<path d="M21.7584 42.2937C21.1074 42.8658 21.0877 43.6154 21.6795 46.2982C22.942 51.9203 25.467 56.4574 29.6688 60.6789C34.0283 65.0187 38.7233 67.5634 44.8582 68.8851C47.7186 69.4966 53.2815 69.4966 56.1418 68.8851C62.2965 67.5634 66.952 65.0384 71.3313 60.6789C75.533 56.4771 77.9988 52.0386 79.2811 46.3574C79.9715 43.28 79.9715 43.063 79.3205 42.3923C78.6301 41.7019 78.1172 41.6625 77.4465 42.2542C77.0322 42.6291 76.8942 43.063 76.6377 44.5425C75.7895 49.5333 73.3039 54.4255 69.6742 58.2328C66.0446 62.0203 61.4877 64.5847 56.1615 65.8275C54.2283 66.2812 53.5379 66.3601 50.5 66.3601C47.4621 66.3601 46.7717 66.2812 44.8385 65.8275C39.8477 64.6636 35.7051 62.4542 32.0754 58.9824C28.1301 55.2146 25.2303 49.7898 24.3426 44.5031C24.1059 43.063 23.9481 42.6291 23.5535 42.2542C22.9223 41.7019 22.4489 41.7019 21.7584 42.2937Z" fill="#F8FF00"/>
</svg>
