<svg width="101" height="94" viewBox="0 0 101 94" fill="none" xmlns="http://www.w3.org/2000/svg">
<path fill-rule="evenodd" clip-rule="evenodd" d="M95.5 3.5H5.5C4.39543 3.5 3.5 4.39543 3.5 5.5V60H97.5V5.5C97.5 4.39543 96.6046 3.5 95.5 3.5ZM0 5.5V60V63.5V71.5C0 74.5375 2.46244 77 5.5 77H37V82V82.1118C32.1888 82.8355 28.5 86.987 28.5 92C28.5 93.1046 29.3955 94 30.5 94H70C71.1046 94 72 93.1046 72 92C72 87.1621 68.5645 83.1266 64 82.2V82V77H95.5C98.5376 77 101 74.5375 101 71.5V63.5V60V5.5C101 2.46243 98.5376 0 95.5 0H5.5C2.46243 0 0 2.46243 0 5.5ZM60.5 77H40.5V82H60.5V77ZM64 73.5H95.5C96.6046 73.5 97.5 72.6045 97.5 71.5V63.5H3.5V71.5C3.5 72.6045 4.39543 73.5 5.5 73.5H37H40.5H60.5H64ZM38.5 85.5C35.4264 85.5 32.8511 87.6333 32.174 90.5H68.3261C67.6489 87.6333 65.0736 85.5 62 85.5H38.5ZM42.75 65.125C41.7835 65.125 41 65.9085 41 66.875C41 67.8415 41.7835 68.625 42.75 68.625H57.7574C58.7239 68.625 59.5074 67.8415 59.5074 66.875C59.5074 65.9085 58.7239 65.125 57.7574 65.125H42.75ZM8.00001 29.5047C7.03351 29.5047 6.25001 28.7212 6.25001 27.7547V17.7454C6.25001 16.7789 7.03351 15.9954 8.00001 15.9954C8.96651 15.9954 9.75001 16.7789 9.75001 17.7454V27.7547C9.75001 28.7212 8.96651 29.5047 8.00001 29.5047ZM5.99997 12.75C5.99997 13.7165 6.78347 14.5 7.74997 14.5C8.71647 14.5 9.49997 13.7165 9.49997 12.75V11.75C9.49997 10.7835 8.71647 10 7.74997 10C6.78347 10 5.99997 10.7835 5.99997 11.75V12.75Z" fill="url(#paint0_linear_29_153)"/>
<defs>
<linearGradient id="paint0_linear_29_153" x1="50.5" y1="0" x2="50.5" y2="207" gradientUnits="userSpaceOnUse">
<stop stop-color="#FF4141"/>
<stop offset="1" stop-color="#FB83CB"/>
</linearGradient>
</defs>
</svg>
